<svg xmlns="http://www.w3.org/2000/svg" xmlns:xlink="http://www.w3.org/1999/xlink" width="1200" height="239" viewBox="0 0 1200 239">
  <defs>
    <style>
      .cls-1 {
        fill: #fff;
        fill-rule: evenodd;
        filter: url(#filter);
      }
    </style>
    <filter id="filter" x="42" y="59" width="1116" height="132" filterUnits="userSpaceOnUse">
      <feOffset result="offset" dy="2" in="SourceAlpha"/>
      <feGaussianBlur result="blur" stdDeviation="3.162"/>
      <feFlood result="flood"/>
      <feComposite result="composite" operator="in" in2="blur"/>
      <feBlend result="blend" in="SourceGraphic"/>
    </filter>
  </defs>
  <path id="_Anastasia_May_Art" data-name="© Anastasia May Art" class="cls-1" d="M123.35,166.456q10.424-9.822,10.425-26.325v-34.8a37.242,37.242,0,0,0-4.725-18.975,33.005,33.005,0,0,0-13.575-12.825q-8.853-4.648-21.6-4.65T72.2,73.531A32.891,32.891,0,0,0,58.55,86.356a37.242,37.242,0,0,0-4.725,18.975v34.8q0,16.5,10.5,26.325t29.55,9.825Q112.922,176.281,123.35,166.456Zm-49.5-9q-7.277-6.525-7.275-17.775v-33.9q0-11.25,7.275-17.925t20.025-6.675q12.6,0,19.875,6.675t7.275,17.925v33.9q0,11.25-7.275,17.775t-19.875,6.525Q81.124,163.981,73.85,157.456Zm28.35-4.95a18.152,18.152,0,0,0,6.3-6.6,18.463,18.463,0,0,0,2.325-9.225v-4.05c0-.2-0.15-0.3-0.45-0.3h-10.05a0.265,0.265,0,0,0-.3.3v4.05A7.686,7.686,0,0,1,98,141.856a6.1,6.1,0,0,1-4.725,2.325,6.283,6.283,0,0,1-4.8-2.1,7.614,7.614,0,0,1-1.95-5.4v-27.75a7.863,7.863,0,0,1,1.8-5.175,6.084,6.084,0,0,1,4.95-2.175,6.37,6.37,0,0,1,4.725,2.1,7.266,7.266,0,0,1,2.025,5.25v4.05a0.419,0.419,0,0,0,.3.3h9.9a0.479,0.479,0,0,0,.45-0.3v-4.05a17.768,17.768,0,0,0-5.025-12.75,17.387,17.387,0,0,0-24.9,0,17.757,17.757,0,0,0-5.025,12.75l-0.15,27.75a18.054,18.054,0,0,0,5.1,12.975,16.743,16.743,0,0,0,12.6,5.325A16.542,16.542,0,0,0,102.2,152.506Zm69.073,22.275h16.65a0.765,0.765,0,0,0,.75-0.75l1.65-10.95h20.4l1.65,10.95a0.761,0.761,0,0,0,.75.75h16.65a0.541,0.541,0,0,0,.6-0.75l-17.85-103.05a0.712,0.712,0,0,0-.75-0.6h-21.75a0.708,0.708,0,0,0-.75.6l-18.6,103.05a0.6,0.6,0,0,0,.6.75h0Zm28.8-69.9,0.6-5.55,0.9,5.55,6.15,42.15h-14.4Zm56.1,69.9a1.131,1.131,0,0,0,1.35-1.2l-1.05-54,25.95,55.2h13.2a0.737,0.737,0,0,0,.75-0.9l-0.15-102.3q0-1.2-.9-1.2h-14.85a1.132,1.132,0,0,0-1.35,1.2l0.75,57.9-25.35-59.1h-13.5a1.06,1.06,0,0,0-1.2,1.2l0.15,102.15a1,1,0,0,0,1.2,1.05h15Zm48.748,0h16.65a0.763,0.763,0,0,0,.75-0.75l1.65-10.95h20.4l1.65,10.95a0.761,0.761,0,0,0,.75.75h16.65a0.54,0.54,0,0,0,.6-0.75l-17.85-103.05a0.712,0.712,0,0,0-.75-0.6h-21.75a0.709,0.709,0,0,0-.75.6l-18.6,103.05a0.6,0.6,0,0,0,.6.75h0Zm28.8-69.9,0.6-5.55,0.9,5.55,6.15,42.15h-14.4Zm77.025,67.425a29.89,29.89,0,0,0,14.625-26.175q0-8.849-4.35-14.925a35.772,35.772,0,0,0-11.85-10.275q-0.45-.3-2.475-1.35t-4.575-2.475q-2.553-1.423-4.725-2.55t-2.925-1.575q-5.552-3-7.65-6.3a15.064,15.064,0,0,1-2.1-8.25,11.775,11.775,0,0,1,3.3-8.325,10.5,10.5,0,0,1,7.95-3.525,10.672,10.672,0,0,1,7.8,3.3,11.579,11.579,0,0,1,3.3,8.55l0.15,12.3a0.53,0.53,0,0,0,.6.6h16.8a0.531,0.531,0,0,0,.6-0.6v-12.3a28.638,28.638,0,0,0-3.975-14.925,30.226,30.226,0,0,0-10.65-10.65,28.852,28.852,0,0,0-29.1-.075,30.2,30.2,0,0,0-10.725,10.575,28.488,28.488,0,0,0-4.05,15.075,33.672,33.672,0,0,0,3.975,16.425,31.494,31.494,0,0,0,12.225,12.075q4.5,2.553,9.6,5.4t7.5,4.2q7.2,4.05,7.2,9.6a12.046,12.046,0,0,1-3.3,8.4,10.652,10.652,0,0,1-15.9.075,11.954,11.954,0,0,1-3.3-8.475v-6.9a0.607,0.607,0,0,0-.6-0.75h-16.8a0.663,0.663,0,0,0-.75.75v6.9a29.4,29.4,0,0,0,3.975,15.075,30.983,30.983,0,0,0,10.65,10.95,27.555,27.555,0,0,0,14.775,4.125A28.346,28.346,0,0,0,410.744,172.306Zm56.325,2.475a0.606,0.606,0,0,0,.6-0.75l-0.15-85.5h19.65a0.606,0.606,0,0,0,.6-0.75v-16.8a0.607,0.607,0,0,0-.75-0.6h-57a0.531,0.531,0,0,0-.6.6l-0.15,16.8a0.661,0.661,0,0,0,.75.75h19.5v85.5a0.6,0.6,0,0,0,.6.75h16.95Zm18.15,0h16.65a0.765,0.765,0,0,0,.75-0.75l1.65-10.95h20.4l1.65,10.95a0.761,0.761,0,0,0,.75.75h16.65a0.541,0.541,0,0,0,.6-0.75l-17.85-103.05a0.712,0.712,0,0,0-.75-0.6h-21.75a0.708,0.708,0,0,0-.75.6l-18.6,103.05a0.6,0.6,0,0,0,.6.75h0Zm28.8-69.9,0.6-5.55,0.9,5.55,6.15,42.15h-14.4Zm77.024,67.425a29.89,29.89,0,0,0,14.625-26.175q0-8.849-4.35-14.925a35.752,35.752,0,0,0-11.85-10.275q-0.45-.3-2.475-1.35t-4.575-2.475q-2.552-1.423-4.725-2.55t-2.925-1.575q-5.55-3-7.65-6.3a15.072,15.072,0,0,1-2.1-8.25,11.78,11.78,0,0,1,3.3-8.325,10.505,10.505,0,0,1,7.95-3.525,10.671,10.671,0,0,1,7.8,3.3,11.575,11.575,0,0,1,3.3,8.55l0.15,12.3a0.53,0.53,0,0,0,.6.6h16.8a0.53,0.53,0,0,0,.6-0.6v-12.3a28.628,28.628,0,0,0-3.975-14.925,30.209,30.209,0,0,0-10.65-10.65,28.852,28.852,0,0,0-29.1-.075,30.2,30.2,0,0,0-10.725,10.575,28.488,28.488,0,0,0-4.05,15.075,33.683,33.683,0,0,0,3.975,16.425,31.508,31.508,0,0,0,12.225,12.075q4.5,2.553,9.6,5.4t7.5,4.2q7.2,4.05,7.2,9.6a12.041,12.041,0,0,1-3.3,8.4,10.652,10.652,0,0,1-15.9.075,11.958,11.958,0,0,1-3.3-8.475v-6.9a0.607,0.607,0,0,0-.6-0.75h-16.8a0.663,0.663,0,0,0-.75.75v6.9a29.4,29.4,0,0,0,3.975,15.075,31,31,0,0,0,10.65,10.95,27.558,27.558,0,0,0,14.775,4.125A28.344,28.344,0,0,0,591.043,172.306Zm42.824,2.475a0.606,0.606,0,0,0,.6-0.75l-0.15-103.05a0.532,0.532,0,0,0-.6-0.6h-16.8a0.531,0.531,0,0,0-.6.6l-0.15,103.05a0.661,0.661,0,0,0,.75.75h16.95Zm9.3,0h16.65a0.763,0.763,0,0,0,.75-0.75l1.65-10.95h20.4l1.65,10.95a0.762,0.762,0,0,0,.75.75h16.65a0.54,0.54,0,0,0,.6-0.75l-17.85-103.05a0.711,0.711,0,0,0-.75-0.6h-21.75a0.71,0.71,0,0,0-.75.6l-18.6,103.05a0.6,0.6,0,0,0,.6.75h0Zm28.8-69.9,0.6-5.55,0.9,5.55,6.15,42.15h-14.4Zm81,69.9a0.606,0.606,0,0,0,.6-0.75l0.15-76.5,15.6,22.8,15.75-22.8,0.15,76.5a0.6,0.6,0,0,0,.6.75h16.95a0.606,0.606,0,0,0,.6-0.75l-0.3-103.05a0.532,0.532,0,0,0-.6-0.6h-18.45a1.3,1.3,0,0,0-1.05.6l-13.65,19.8-13.65-19.8a1.3,1.3,0,0,0-1.05-.6h-18.3a0.531,0.531,0,0,0-.6.6l-0.3,103.05a0.6,0.6,0,0,0,.6.75h16.95Zm58.5,0h16.65a0.765,0.765,0,0,0,.75-0.75l1.65-10.95h20.4l1.65,10.95a0.761,0.761,0,0,0,.75.75h16.65a0.541,0.541,0,0,0,.6-0.75L852.71,70.981a0.712,0.712,0,0,0-.75-0.6H830.21a0.708,0.708,0,0,0-.75.6l-18.6,103.05a0.6,0.6,0,0,0,.6.75h0Zm28.8-69.9,0.6-5.55,0.9,5.55,6.15,42.15h-14.4Zm64.349,69.9a0.53,0.53,0,0,0,.6-0.6l-0.15-43.2,20.25-60a0.414,0.414,0,0,0-.45-0.6h-16.8a0.71,0.71,0,0,0-.75.6l-11.25,40.35-11.1-40.35a0.805,0.805,0,0,0-.9-0.6h-16.65a0.414,0.414,0,0,0-.45.6l20.1,60.6-0.15,42.6c0,0.4.15,0.6,0.45,0.6h17.25Zm50.1,0h16.65a0.765,0.765,0,0,0,.75-0.75l1.65-10.95h20.4l1.65,10.95a0.761,0.761,0,0,0,.75.75h16.654a0.545,0.545,0,0,0,.6-0.75L995.956,70.981a0.712,0.712,0,0,0-.75-0.6h-21.75a0.708,0.708,0,0,0-.75.6l-18.6,103.05a0.6,0.6,0,0,0,.6.75h0Zm28.8-69.9,0.6-5.55,0.9,5.55,6.15,42.15h-14.4Zm57.294,69.9a0.6,0.6,0,0,0,.6-0.75l0.15-44.1h9.9a12.525,12.525,0,0,1,9.38,3.975,13.071,13.071,0,0,1,3.82,9.375v31.05q0,0.45.6,0.45h16.95a0.662,0.662,0,0,0,.75-0.75l-0.15-30.75a30.6,30.6,0,0,0-8.1-21.15,26,26,0,0,0,4.05-4.575,30.929,30.929,0,0,0,3.9-7.5,30.422,30.422,0,0,0-2.4-25.05,30.418,30.418,0,0,0-10.87-10.65,29.163,29.163,0,0,0-14.93-3.975h-30.3a0.531,0.531,0,0,0-.6.6l-0.3,103.05a0.6,0.6,0,0,0,.6.75h16.95Zm0.75-86.4h12.9a11.521,11.521,0,0,1,8.33,3.45,11.514,11.514,0,0,1-.08,16.65,11.579,11.579,0,0,1-8.25,3.45h-12.9V88.381Zm82.95,86.4a0.6,0.6,0,0,0,.6-0.75l-0.15-85.5h19.65a0.605,0.605,0,0,0,.6-0.75v-16.8a0.606,0.606,0,0,0-.75-0.6h-57a0.531,0.531,0,0,0-.6.6l-0.15,16.8a0.662,0.662,0,0,0,.75.75h19.5v85.5a0.6,0.6,0,0,0,.6.75h16.95Z"/>
</svg>
